<?xml version="1.0" ?><svg viewBox="0 0 32 32" xmlns="http://www.w3.org/2000/svg"><defs><style>.cls-1{fill:#8c9eff;}.cls-2{fill:#5f7cf9;}.cls-3{fill:#4062ed;}</style></defs><title/><g id="Add"><rect class="cls-1" height="22" rx="4" ry="4" width="22" x="5" y="5"/><path class="cls-2" d="M23,5H16V27h7a4,4,0,0,0,4-4V9A4,4,0,0,0,23,5Z"/><path class="cls-2" d="M20,15H17V12a1,1,0,0,0-2,0v3H12a1,1,0,0,0,0,2h3v3a1,1,0,0,0,2,0V17h3a1,1,0,0,0,0-2Z"/><path class="cls-3" d="M20,15H17V12a1,1,0,0,0-1-1V21a1,1,0,0,0,1-1V17h3a1,1,0,0,0,0-2Z"/></g></svg>